<?xml version="1.0" encoding="UTF-8"?><svg id="Layer_1" xmlns="http://www.w3.org/2000/svg" viewBox="0 0 36 36"><defs><style>.cls-1{fill:#fff;}.cls-2{fill:#080808;}</style></defs><circle class="cls-2" cx="18" cy="18" r="18"/><path class="cls-1" d="M21.46,11.16c1.22,.71,2.2,1.67,2.92,2.88,.72,1.21,1.08,2.53,1.08,3.96s-.36,2.75-1.08,3.96c-.72,1.21-1.7,2.17-2.92,2.88-1.23,.71-2.55,1.06-3.98,1.06h-4.47c-.1,0-.2-.04-.27-.11-.08-.08-.11-.17-.11-.27l-.07-3.5V13.98l.07-3.5c0-.1,.04-.19,.11-.27,.07-.08,.17-.11,.27-.11h4.47c1.43,0,2.76,.35,3.98,1.06Zm-1.11,11.84c.88-.53,1.58-1.23,2.09-2.12,.51-.89,.77-1.85,.77-2.89s-.26-2-.78-2.89c-.52-.89-1.21-1.59-2.09-2.12-.87-.53-1.83-.79-2.87-.79l-2.68-.02,.02,1.8v8.03l-.02,1.81,2.68-.02c1.04,0,2-.26,2.88-.79Z"/></svg>