<?xml version="1.0" encoding="UTF-8"?><svg id="Layer_1" xmlns="http://www.w3.org/2000/svg" viewBox="0 0 106 36"><defs><style>.cls-1{fill:#080808;}</style></defs><g><path class="cls-1" d="M12.43,3c1.66,.96,2.98,2.26,3.96,3.9,.98,1.64,1.47,3.43,1.47,5.37s-.49,3.73-1.47,5.37c-.98,1.64-2.3,2.94-3.96,3.9-1.66,.96-3.46,1.44-5.4,1.44H.97c-.14,0-.27-.05-.37-.15-.1-.1-.15-.22-.15-.37l-.09-4.74V6.82l.09-4.74c0-.14,.05-.26,.15-.37s.22-.15,.37-.15H7.03c1.94,0,3.74,.48,5.4,1.44Zm-1.5,16.07c1.19-.71,2.14-1.67,2.83-2.88,.69-1.2,1.04-2.51,1.04-3.92s-.35-2.71-1.06-3.92c-.7-1.2-1.65-2.16-2.83-2.88-1.18-.71-2.48-1.07-3.89-1.07l-3.64-.03,.03,2.45v10.9l-.03,2.45,3.64-.03c1.41,0,2.71-.36,3.9-1.07Z"/><path class="cls-1" d="M34.85,14.93c-.02,.41-.21,.77-.58,1.07-.37,.31-.78,.46-1.22,.46h-9.37c-.08,0-.15,.03-.21,.09-.06,.06-.08,.14-.06,.24,.26,1.1,.82,1.92,1.67,2.45,.85,.53,1.84,.8,2.98,.8,.59,0,1.22-.13,1.88-.4,.66-.26,1.24-.62,1.73-1.07,.1-.1,.23-.15,.4-.15,.18,0,.32,.05,.4,.15l1.22,1.19c.12,.08,.18,.21,.18,.4,0,.16-.06,.31-.18,.43-1.61,1.59-3.51,2.39-5.69,2.39-1.43,0-2.73-.34-3.9-1.01-1.17-.67-2.1-1.59-2.77-2.74-.67-1.15-1.01-2.44-1.01-3.87,0-.49,.02-.87,.06-1.13,.16-1.29,.6-2.41,1.32-3.37,.71-.96,1.62-1.7,2.71-2.22,1.09-.52,2.28-.78,3.57-.78,.2,0,.51,.02,.92,.06,1.1,.12,2.11,.52,3.03,1.18,.92,.66,1.64,1.46,2.17,2.4,.53,.94,.8,1.85,.8,2.72l-.03,.7Zm-9.66-3.46c-.81,.65-1.32,1.44-1.55,2.36l-.03,.09c0,.08,.03,.15,.09,.21,.06,.06,.13,.09,.21,.09h7.87c.1,0,.18-.04,.24-.12,.06-.08,.07-.17,.03-.28-.29-.94-.75-1.73-1.38-2.37-.63-.64-1.51-.96-2.63-.96s-2.06,.33-2.86,.98Z"/><path class="cls-1" d="M48.68,17.44c.14,.43,.21,.87,.21,1.32,0,.84-.26,1.58-.78,2.23-.52,.65-1.2,1.15-2.05,1.5-.85,.35-1.75,.52-2.71,.52-1.06,0-2.07-.23-3.03-.69-.96-.46-1.73-1.15-2.33-2.07-.04-.06-.06-.16-.06-.31,0-.26,.09-.44,.28-.52l1.53-.83c.08-.04,.16-.06,.24-.06,.18,0,.34,.07,.46,.21,.35,.39,.8,.7,1.35,.95,.55,.24,1.09,.37,1.62,.37,.59,0,1.14-.13,1.64-.4,.5-.26,.75-.64,.75-1.13s-.2-.84-.6-1.06c-.4-.21-1.03-.4-1.88-.57-1.02-.22-1.76-.43-2.2-.61-.96-.39-1.68-.93-2.17-1.62-.49-.69-.73-1.44-.73-2.23,0-1.04,.39-1.99,1.18-2.85,.79-.86,1.87-1.4,3.26-1.62,.43-.06,.85-.09,1.25-.09,2.22,0,3.94,.95,5.14,2.85,.06,.08,.09,.18,.09,.31,0,.22-.1,.4-.31,.52l-1.35,.8c-.12,.04-.21,.06-.28,.06-.2,0-.37-.07-.49-.21-.82-1-1.82-1.5-3-1.5-.14,0-.36,.02-.64,.06-.49,.08-.91,.26-1.25,.52-.35,.27-.53,.54-.55,.83-.04,.51,.06,.92,.31,1.22,.24,.31,.57,.54,.98,.69,.41,.15,.99,.31,1.74,.47,.82,.2,1.48,.4,1.99,.58,.51,.18,.98,.46,1.42,.84,.44,.38,.76,.88,.96,1.52Z"/><path class="cls-1" d="M56.67,4.62c0,.51-.19,.95-.57,1.33-.38,.38-.83,.57-1.36,.57s-.98-.18-1.36-.55c-.38-.37-.57-.82-.57-1.35s.19-.98,.57-1.36c.38-.38,.83-.57,1.36-.57s.98,.19,1.36,.57c.38,.38,.57,.83,.57,1.36Zm-1.04,3.24h-1.78c-.14,0-.27,.05-.38,.15-.11,.1-.17,.23-.17,.4l-.09,4.9v4.22l.09,4.93c0,.14,.06,.27,.17,.37,.11,.1,.24,.15,.38,.15h1.78c.14,0,.26-.05,.37-.15,.1-.1,.15-.22,.15-.37l.12-4.93v-4.22l-.12-4.9c0-.16-.05-.3-.15-.4-.1-.1-.22-.15-.37-.15Z"/><path class="cls-1" d="M72.59,13.88c0,.1,.04,.18,.12,.24,.71,.49,1.26,1.09,1.64,1.81,.38,.71,.57,1.52,.57,2.42,0,1.18-.35,2.2-1.06,3.05-.7,.85-1.63,1.49-2.79,1.93-1.15,.44-2.39,.66-3.72,.66-1.94,0-3.66-.45-5.17-1.35-.14-.12-.21-.28-.21-.46,0-.1,.03-.2,.09-.31l.89-1.25c.08-.1,.18-.17,.31-.2s.23-.02,.34,.05c1.04,.47,2.21,.7,3.52,.7s2.54-.25,3.52-.75c.98-.5,1.47-1.19,1.47-2.07,0-1.08-.48-1.81-1.44-2.17-.96-.37-2-.55-3.12-.55-1.35,0-2.6-.34-3.75-1.03-1.15-.68-2.07-1.6-2.74-2.75-.67-1.15-1.01-2.41-1.01-3.78s.34-2.6,1.01-3.76c.67-1.16,1.59-2.08,2.74-2.75,1.15-.67,2.41-1.01,3.78-1.01s2.63,.34,3.78,1.01c1.15,.67,2.08,1.59,2.77,2.75,.69,1.16,1.04,2.42,1.04,3.76,0,1.08-.22,2.11-.66,3.08-.44,.97-1.05,1.81-1.82,2.53-.06,.06-.09,.13-.09,.21Zm-8.92-3.54c.4,.7,.94,1.26,1.64,1.67,.69,.41,1.46,.61,2.3,.61s1.57-.2,2.27-.61c.69-.41,1.24-.96,1.65-1.67,.41-.7,.61-1.46,.61-2.28s-.2-1.57-.61-2.26c-.41-.69-.96-1.24-1.65-1.65-.69-.41-1.45-.61-2.27-.61s-1.57,.2-2.27,.61c-.69,.41-1.24,.96-1.65,1.65-.41,.69-.61,1.45-.61,2.26s.2,1.58,.6,2.28Z"/><path class="cls-1" d="M90.95,22.43c0,.14-.05,.27-.15,.38-.1,.11-.22,.17-.37,.17h-1.71c-.14,0-.27-.06-.38-.17-.11-.11-.17-.24-.17-.38l-.12-8.14c0-1.12-.34-2-1.01-2.63-.67-.63-1.47-.95-2.39-.95s-1.72,.32-2.4,.95c-.68,.63-1.03,1.51-1.03,2.63l-.09,8.14c0,.14-.05,.27-.15,.38-.1,.11-.23,.17-.4,.17h-1.71c-.14,0-.27-.06-.38-.17-.11-.11-.17-.24-.17-.38l-.09-8.48,.03-5.26c0-.16,.06-.3,.17-.4,.11-.1,.24-.15,.38-.15h1.84c.14,0,.26,.05,.37,.15,.1,.1,.16,.22,.18,.37v.8c.78-1.06,1.93-1.59,3.46-1.59,1.39,0,2.57,.3,3.54,.9,.97,.6,1.69,1.39,2.17,2.37,.48,.98,.72,2.03,.72,3.15l-.12,8.14Z"/><path class="cls-1" d="M105.19,17.44c.14,.43,.21,.87,.21,1.32,0,.84-.26,1.58-.78,2.23-.52,.65-1.2,1.15-2.05,1.5-.85,.35-1.75,.52-2.71,.52-1.06,0-2.07-.23-3.03-.69-.96-.46-1.73-1.15-2.33-2.07-.04-.06-.06-.16-.06-.31,0-.26,.09-.44,.28-.52l1.53-.83c.08-.04,.16-.06,.24-.06,.18,0,.34,.07,.46,.21,.35,.39,.8,.7,1.35,.95,.55,.24,1.09,.37,1.62,.37,.59,0,1.14-.13,1.64-.4,.5-.26,.75-.64,.75-1.13s-.2-.84-.6-1.06-1.03-.4-1.88-.57c-1.02-.22-1.76-.43-2.2-.61-.96-.39-1.68-.93-2.17-1.62-.49-.69-.73-1.44-.73-2.23,0-1.04,.39-1.99,1.18-2.85,.79-.86,1.87-1.4,3.26-1.62,.43-.06,.85-.09,1.25-.09,2.22,0,3.94,.95,5.14,2.85,.06,.08,.09,.18,.09,.31,0,.22-.1,.4-.31,.52l-1.35,.8c-.12,.04-.21,.06-.28,.06-.2,0-.37-.07-.49-.21-.82-1-1.82-1.5-3-1.5-.14,0-.36,.02-.64,.06-.49,.08-.91,.26-1.25,.52-.35,.27-.53,.54-.55,.83-.04,.51,.06,.92,.31,1.22s.57,.54,.98,.69c.41,.15,.99,.31,1.74,.47,.82,.2,1.48,.4,1.99,.58,.51,.18,.98,.46,1.42,.84,.44,.38,.76,.88,.96,1.52Z"/></g><g><path class="cls-1" d="M37.71,32.72h-.02v.61h-.79v-6.7h.79v2.87h.02c.18-.31,.41-.54,.68-.69,.27-.15,.58-.23,.93-.23,.59,0,1.06,.21,1.39,.62,.34,.41,.5,.97,.5,1.67,0,.78-.19,1.4-.57,1.87-.38,.47-.89,.7-1.55,.7-.31,0-.58-.06-.81-.18-.23-.12-.43-.3-.58-.54Zm-.02-1.93v.63c0,.38,.12,.71,.37,.97,.24,.26,.56,.4,.94,.4,.44,0,.78-.17,1.03-.51,.25-.34,.38-.81,.38-1.41,0-.51-.12-.9-.35-1.19-.23-.29-.55-.43-.95-.43-.43,0-.77,.15-1.03,.44-.26,.3-.39,.67-.39,1.11Z"/><path class="cls-1" d="M46.19,28.69l-2.16,5.47c-.17,.44-.39,.76-.65,.98-.27,.22-.58,.33-.94,.33-.1,0-.19,0-.27-.02-.08-.01-.16-.03-.24-.05l.15-.66c.06,.02,.11,.04,.17,.04,.05,0,.1,.01,.16,.01,.19,0,.36-.05,.49-.15,.13-.1,.24-.25,.32-.44l.38-.89-1.82-4.63h.87l1.23,3.51s.02,.08,.04,.14c.02,.06,.04,.14,.06,.24h.03s.02-.09,.04-.15c.02-.06,.04-.13,.06-.21l1.29-3.52h.81Z"/><path class="cls-1" d="M50.42,31.02v2.3h-.8v-6.34h1.79c.69,0,1.22,.17,1.6,.5,.38,.34,.56,.81,.56,1.44s-.21,1.12-.63,1.51c-.42,.39-.98,.59-1.69,.59h-.82Zm0-3.32v2.61h.76c.5,0,.88-.12,1.14-.35,.26-.23,.39-.56,.39-.99s-.12-.74-.36-.95c-.24-.21-.61-.32-1.09-.32h-.84Z"/><path class="cls-1" d="M57.74,33.33h-.78v-.73h-.02c-.16,.28-.36,.49-.59,.63-.24,.14-.51,.21-.82,.21-.44,0-.79-.13-1.06-.38-.27-.25-.4-.59-.4-1s.14-.74,.41-.99c.27-.26,.66-.43,1.17-.5l1.32-.18v-.11c0-.37-.09-.64-.27-.81-.18-.17-.42-.25-.72-.25-.24,0-.47,.05-.7,.14-.23,.09-.44,.23-.65,.41l-.43-.48c.26-.24,.54-.42,.84-.54,.3-.12,.63-.17,.98-.17,.57,0,.99,.15,1.28,.44s.43,.73,.43,1.31v3Zm-.78-1.89v-.45l-1.11,.15c-.34,.05-.59,.13-.76,.26-.17,.12-.25,.32-.25,.58s.08,.47,.24,.61c.16,.14,.35,.22,.59,.22,.39,0,.7-.13,.94-.39,.24-.26,.35-.59,.35-.98Z"/><path class="cls-1" d="M62.92,28.69l-1.84,4.64h-.79l-1.75-4.64h.86l1.15,3.34c.04,.13,.08,.24,.1,.35,.03,.11,.05,.21,.06,.31h.02c.01-.12,.03-.23,.06-.33,.02-.1,.05-.21,.09-.3l1.21-3.36h.83Z"/><path class="cls-1" d="M67.11,33.33h-.78v-.73h-.02c-.16,.28-.36,.49-.59,.63-.24,.14-.51,.21-.82,.21-.44,0-.79-.13-1.06-.38-.27-.25-.4-.59-.4-1s.14-.74,.41-.99c.27-.26,.66-.43,1.17-.5l1.32-.18v-.11c0-.37-.09-.64-.27-.81-.18-.17-.42-.25-.72-.25-.24,0-.47,.05-.7,.14-.23,.09-.44,.23-.65,.41l-.43-.48c.26-.24,.54-.42,.84-.54,.3-.12,.63-.17,.98-.17,.57,0,.99,.15,1.28,.44,.29,.29,.43,.73,.43,1.31v3Zm-.78-1.89v-.45l-1.11,.15c-.34,.05-.59,.13-.76,.26-.17,.12-.25,.32-.25,.58s.08,.47,.24,.61c.16,.14,.35,.22,.59,.22,.39,0,.7-.13,.94-.39,.24-.26,.35-.59,.35-.98Z"/><path class="cls-1" d="M72.45,33.33h-.79v-2.64c0-.48-.09-.85-.27-1.09-.18-.24-.44-.36-.79-.36s-.66,.14-.9,.41c-.24,.27-.36,.62-.36,1.04v2.65h-.79v-4.64h.79v.77h.02c.17-.29,.39-.51,.64-.66,.25-.15,.55-.22,.88-.22,.51,0,.89,.16,1.16,.49,.27,.33,.4,.8,.4,1.42v2.84Z"/><path class="cls-1" d="M80.96,33c-.31,.15-.61,.26-.9,.33-.29,.07-.61,.1-.96,.1-.96,0-1.71-.29-2.24-.87-.53-.58-.8-1.34-.8-2.29,0-1.03,.3-1.85,.9-2.47,.6-.62,1.37-.92,2.33-.92,.31,0,.59,.03,.86,.08,.27,.06,.53,.15,.81,.27l-.3,.66c-.23-.1-.45-.18-.67-.22-.22-.05-.45-.07-.7-.07-.72,0-1.3,.23-1.73,.7-.43,.47-.65,1.11-.65,1.91,0,.76,.2,1.37,.61,1.82,.41,.45,.96,.67,1.64,.67,.25,0,.5-.03,.74-.09s.49-.15,.74-.28l.32,.65Z"/><path class="cls-1" d="M85.98,33.33h-.79v-2.67c0-.47-.09-.83-.26-1.07-.18-.24-.44-.35-.79-.35s-.65,.14-.9,.41c-.24,.27-.36,.63-.36,1.06v2.63h-.79v-6.7h.79v2.83h.02c.18-.29,.39-.51,.65-.66s.54-.22,.87-.22c.52,0,.92,.16,1.18,.47,.26,.32,.39,.79,.39,1.42v2.86Z"/><path class="cls-1" d="M90.75,33.33h-.78v-.73h-.02c-.16,.28-.36,.49-.59,.63-.24,.14-.51,.21-.82,.21-.44,0-.79-.13-1.06-.38-.27-.25-.4-.59-.4-1s.14-.74,.41-.99c.27-.26,.66-.43,1.17-.5l1.32-.18v-.11c0-.37-.09-.64-.27-.81s-.42-.25-.72-.25c-.24,0-.47,.05-.7,.14-.23,.09-.44,.23-.65,.41l-.43-.48c.26-.24,.54-.42,.84-.54,.3-.12,.63-.17,.98-.17,.57,0,.99,.15,1.28,.44s.43,.73,.43,1.31v3Zm-.78-1.89v-.45l-1.11,.15c-.34,.05-.59,.13-.76,.26-.17,.12-.25,.32-.25,.58s.08,.47,.24,.61c.16,.14,.35,.22,.59,.22,.39,0,.7-.13,.94-.39,.24-.26,.35-.59,.35-.98Z"/><path class="cls-1" d="M95.92,28.69l-1.84,4.64h-.79l-1.75-4.64h.86l1.15,3.34c.04,.13,.08,.24,.1,.35,.03,.11,.05,.21,.06,.31h.02c.01-.12,.03-.23,.06-.33,.02-.1,.05-.21,.09-.3l1.21-3.36h.83Z"/><path class="cls-1" d="M99.97,32.55c-.17,.29-.39,.52-.65,.67-.26,.15-.57,.22-.93,.22-.58,0-1.05-.21-1.4-.62s-.52-.98-.52-1.7c0-.77,.19-1.38,.58-1.85,.39-.46,.9-.69,1.54-.69,.32,0,.59,.06,.82,.19s.42,.31,.56,.56h.02v-2.7h.79v6.7h-.79v-.78h-.02Zm-2.7-1.47c0,.53,.12,.95,.37,1.25,.24,.3,.57,.46,.98,.46s.74-.15,.99-.44,.38-.67,.38-1.12v-.66c0-.37-.12-.69-.36-.94-.24-.26-.55-.38-.92-.38-.45,0-.8,.16-1.05,.49s-.38,.78-.38,1.35Z"/><path class="cls-1" d="M105.64,33.33h-.78v-.73h-.02c-.16,.28-.36,.49-.59,.63-.24,.14-.51,.21-.82,.21-.44,0-.79-.13-1.06-.38-.27-.25-.4-.59-.4-1s.14-.74,.41-.99c.27-.26,.66-.43,1.17-.5l1.32-.18v-.11c0-.37-.09-.64-.27-.81s-.42-.25-.72-.25c-.24,0-.47,.05-.7,.14-.23,.09-.44,.23-.65,.41l-.43-.48c.26-.24,.54-.42,.84-.54,.3-.12,.63-.17,.98-.17,.57,0,.99,.15,1.28,.44s.43,.73,.43,1.31v3Zm-.78-1.89v-.45l-1.11,.15c-.34,.05-.59,.13-.76,.26-.17,.12-.25,.32-.25,.58s.08,.47,.24,.61c.16,.14,.35,.22,.59,.22,.39,0,.7-.13,.94-.39,.24-.26,.35-.59,.35-.98Z"/></g></svg>